<svg version="1.0" xmlns="http://www.w3.org/2000/svg"
 width="229.000000pt" height="229.000000pt" viewBox="0 0 229.000000 229.000000"
 preserveAspectRatio="xMidYMid meet">

<g transform="translate(0.000000,229.000000) scale(0.100000,-0.100000)"
fill="#000000" stroke="none">
<path d="M1515 2245 c-27 -8 -83 -31 -125 -51 -68 -33 -98 -59 -326 -288 -229
-229 -254 -258 -287 -326 -49 -100 -67 -177 -67 -280 0 -103 18 -180 66 -279
41 -84 140 -191 217 -236 l49 -28 55 54 c62 61 92 116 93 171 0 30 -5 41 -27
55 -50 30 -94 77 -121 128 -23 43 -27 63 -27 135 0 124 15 146 274 403 244
241 260 252 386 252 164 -1 288 -128 288 -295 0 -107 -29 -158 -181 -313
l-128 -132 19 -70 c14 -55 17 -97 15 -192 -3 -107 -2 -120 12 -113 8 4 114
109 235 232 225 228 265 280 307 394 30 82 37 253 13 344 -53 206 -227 382
-431 434 -75 19 -239 20 -309 1z"/>
<path d="M1198 1463 c-90 -92 -116 -185 -60 -220 49 -30 93 -77 120 -128 23
-43 27 -63 27 -135 0 -124 -15 -147 -269 -397 -244 -242 -268 -258 -386 -258
-174 0 -294 121 -294 295 0 114 20 150 175 306 l131 132 -17 73 c-18 77 -24
230 -11 287 4 17 4 32 -1 32 -5 0 -112 -105 -239 -232 -299 -304 -334 -362
-342 -573 -7 -187 45 -322 173 -451 115 -115 258 -174 425 -174 103 0 180 18
280 66 69 34 97 58 326 288 230 229 254 257 288 326 48 100 66 177 66 280 0
203 -98 390 -261 499 -34 23 -64 41 -68 41 -4 0 -32 -26 -63 -57z"/>
</g>
</svg>
