<?xml version="1.0" encoding="UTF-8"?>
<svg xmlns="http://www.w3.org/2000/svg" xmlns:xlink="http://www.w3.org/1999/xlink" width="20px" height="20px" viewBox="0 0 20 20" version="1.1">
<defs>
<filter id="alpha" filterUnits="objectBoundingBox" x="0%" y="0%" width="100%" height="100%">
  <feColorMatrix type="matrix" in="SourceGraphic" values="0 0 0 0 1 0 0 0 0 1 0 0 0 0 1 0 0 0 1 0"/>
</filter>
<mask id="mask0">
  <g filter="url(#alpha)">
<rect x="0" y="0" width="20" height="20" style="fill:rgb(0%,0%,0%);fill-opacity:0.4;stroke:none;"/>
  </g>
</mask>
<clipPath id="clip1">
  <rect x="0" y="0" width="20" height="20"/>
</clipPath>
<g id="surface5" clip-path="url(#clip1)">
<path style=" stroke:none;fill-rule:evenodd;fill:rgb(100%,100%,100%);fill-opacity:1;" d="M 5.75 0.25 C 5.082031 0.25 4.667969 0.25 4.167969 0.417969 C 3.75 0.5 3.417969 0.667969 3.167969 1 C 2.832031 1.332031 2.667969 1.75 2.332031 2.332031 L 0.5 6 C 0.417969 6.082031 0.332031 6.25 0.332031 6.332031 C 0.332031 6.417969 0.25 6.582031 0.25 6.667969 C 0.25 6.832031 0.25 6.917969 0.25 7.082031 L 0.25 13.5 C 0.25 14.167969 0.25 14.75 0.25 15.167969 C 0.25 15.582031 0.332031 16 0.582031 16.417969 C 0.832031 17 1.332031 17.5 1.917969 17.75 C 2.25 17.917969 2.667969 18 3.167969 18.082031 C 3.582031 18.082031 4.167969 18.082031 4.832031 18.082031 L 9.332031 18.082031 C 9.582031 18.082031 9.917969 17.917969 9.917969 17.582031 L 10.25 16 C 10.332031 15.75 10.417969 15.582031 10.582031 15.417969 L 15.5 10.5 C 15.667969 10.332031 15.832031 10.167969 16 10 C 16.417969 9.667969 16.917969 9.582031 17.417969 9.582031 C 17.75 9.582031 18 9.332031 18 8.917969 L 18 7.082031 C 18 6.917969 18 6.832031 18 6.667969 C 18 6.582031 17.917969 6.417969 17.917969 6.332031 C 17.832031 6.25 17.832031 6.082031 17.75 6 L 15.917969 2.332031 C 15.667969 1.75 15.417969 1.332031 15.082031 1 C 14.832031 0.75 14.417969 0.5 14.082031 0.332031 C 13.667969 0.167969 13.167969 0.167969 12.5 0.167969 L 5.75 0.167969 Z M 17.25 6.25 L 17.832031 6 Z M 17.25 6.25 "/>
</g>
</defs>
<g id="surface1">
<use xlink:href="#surface5" mask="url(#mask0)"/>
<path style=" stroke:none;fill-rule:nonzero;fill:rgb(100%,100%,100%);fill-opacity:1;" d="M 8.5 0.5 C 8.5 0.332031 8.417969 0.25 8.25 0.25 L 5.667969 0.25 C 5 0.25 4.582031 0.25 4.082031 0.417969 C 3.75 0.5 3.417969 0.667969 3.167969 1 C 2.832031 1.332031 2.667969 1.75 2.332031 2.332031 L 0.25 6.417969 C 0.167969 6.582031 0.167969 6.832031 0.25 7 C 0.417969 7.167969 0.582031 7.332031 0.832031 7.332031 L 17.5 7.332031 C 17.75 7.332031 17.917969 7.25 18 7 C 18.082031 6.832031 18.082031 6.582031 18 6.417969 L 16 2.332031 C 15.75 1.75 15.5 1.332031 15.167969 1 C 14.917969 0.75 14.5 0.5 14.167969 0.332031 C 13.75 0.167969 13.25 0.167969 12.582031 0.167969 L 10 0.167969 C 9.832031 0.167969 9.75 0.25 9.75 0.417969 L 9.75 5.832031 C 9.75 6 9.667969 6.082031 9.5 6.082031 L 8.75 6.082031 C 8.582031 6.082031 8.5 6 8.5 5.832031 Z M 8.5 0.5 "/>
<path style=" stroke:none;fill-rule:nonzero;fill:rgb(100%,100%,100%);fill-opacity:1;" d="M 18.332031 10.917969 C 17.832031 10.582031 17.167969 10.582031 16.667969 10.917969 C 16.582031 11 16.417969 11.082031 16.25 11.25 L 15.832031 11.75 C 15.667969 11.917969 15.667969 12.167969 15.832031 12.332031 L 17.667969 14.167969 C 17.832031 14.332031 18.082031 14.332031 18.25 14.167969 L 18.75 13.667969 C 18.917969 13.5 19 13.417969 19.082031 13.25 C 19.417969 12.75 19.417969 12.082031 19.082031 11.582031 C 19 11.5 18.917969 11.332031 18.75 11.167969 C 18.582031 11.082031 18.417969 11 18.332031 10.917969 Z M 18.332031 10.917969 "/>
<path style=" stroke:none;fill-rule:nonzero;fill:rgb(100%,100%,100%);fill-opacity:1;" d="M 14.667969 12.917969 C 14.832031 12.75 15.082031 12.75 15.25 12.917969 L 17.082031 14.75 C 17.25 14.917969 17.25 15.167969 17.082031 15.332031 L 13.75 18.667969 L 13.667969 18.75 L 10.832031 19.417969 C 10.75 19.417969 10.667969 19.417969 10.667969 19.332031 C 10.582031 19.25 10.582031 19.25 10.582031 19.167969 L 11.25 16.332031 C 11.25 16.332031 11.25 16.25 11.332031 16.25 Z M 14.667969 12.917969 "/>
<path style=" stroke:none;fill-rule:nonzero;fill:rgb(100%,100%,100%);fill-opacity:1;" d="M 4.75 11.667969 C 5.25 11.667969 5.582031 11.832031 5.917969 12.082031 C 6.25 12.417969 6.417969 12.75 6.417969 13.25 C 6.417969 13.667969 6.25 14.082031 5.917969 14.417969 C 5.582031 14.75 5.167969 14.832031 4.75 14.832031 L 3.917969 14.832031 L 3.917969 16.167969 L 2.667969 16.167969 L 2.667969 11.667969 Z M 4.75 13.667969 C 4.832031 13.667969 5 13.667969 5.082031 13.582031 C 5.167969 13.5 5.167969 13.417969 5.167969 13.25 C 5.167969 13.167969 5.167969 13 5.082031 12.917969 C 5 12.832031 4.917969 12.832031 4.75 12.832031 L 3.917969 12.832031 L 3.917969 13.667969 Z M 4.75 13.667969 "/>
</g>
</svg>
