<?xml version="1.0" encoding="utf-8"?>
<!-- Generator: Adobe Illustrator 27.9.0, SVG Export Plug-In . SVG Version: 6.00 Build 0)  -->
<svg version="1.1" baseProfile="basic"
	 id="_20_x2B__Table_Preset_Template_Drag_and_Drop_Columns_Manager_Mini-c_00000153707057260822575700000012929127638536791961_"
	 xmlns="http://www.w3.org/2000/svg" xmlns:xlink="http://www.w3.org/1999/xlink" x="0px" y="0px" viewBox="0 0 24 24"
	 xml:space="preserve">
<g id="Shape_13_00000127762417337292526560000011190912184811127177_" display="none">
</g>
<g>
	<g>
		<defs>
			<rect id="SVGID_1_" width="24" height="24"/>
		</defs>
		<clipPath id="SVGID_00000072237819620916970030000012381384624758744496_">
			<use xlink:href="#SVGID_1_"  overflow="visible"/>
		</clipPath>
		<g clip-path="url(#SVGID_00000072237819620916970030000012381384624758744496_)">
			<path opacity="0.4" fill-rule="evenodd" clip-rule="evenodd" fill="#FFFFFF" d="M6.9,0.3c-0.8,0-1.3,0-1.9,0.2
				C4.5,0.6,4.1,0.8,3.8,1.2c-0.4,0.4-0.6,0.9-1,1.6L0.6,7.2C0.5,7.3,0.4,7.5,0.4,7.6S0.3,7.9,0.3,8c0,0.2,0,0.3,0,0.5v7.7
				c0,0.8,0,1.5,0,2s0.1,1,0.4,1.5C1,20.4,1.6,21,2.3,21.3c0.4,0.2,0.9,0.3,1.5,0.4c0.5,0,1.2,0,2,0h5.4c0.3,0,0.7-0.2,0.7-0.6
				l0.4-1.9c0.1-0.3,0.2-0.5,0.4-0.7l5.9-5.9c0.2-0.2,0.4-0.4,0.6-0.6c0.5-0.4,1.1-0.5,1.7-0.5c0.4,0,0.7-0.3,0.7-0.8V8.5
				c0-0.2,0-0.3,0-0.5c0-0.1-0.1-0.3-0.1-0.4c-0.1-0.1-0.1-0.3-0.2-0.4l0,0l-2.2-4.4c-0.3-0.7-0.6-1.2-1-1.6
				c-0.3-0.3-0.8-0.6-1.2-0.8c-0.5-0.2-1.1-0.2-1.9-0.2H6.9V0.3z M20.7,7.5l0.7-0.3l0,0l0,0L20.7,7.5z"/>
			<path fill="#FFFFFF" d="M10.2,0.6c0-0.2-0.1-0.3-0.3-0.3H6.8c-0.8,0-1.3,0-1.9,0.2C4.5,0.6,4.1,0.8,3.8,1.2
				c-0.4,0.4-0.6,0.9-1,1.6L0.3,7.7c-0.1,0.2-0.1,0.5,0,0.7C0.5,8.6,0.7,8.8,1,8.8h20c0.3,0,0.5-0.1,0.6-0.4c0.1-0.2,0.1-0.5,0-0.7
				l-2.4-4.9c-0.3-0.7-0.6-1.2-1-1.6c-0.3-0.3-0.8-0.6-1.2-0.8c-0.5-0.2-1.1-0.2-1.9-0.2H12c-0.2,0-0.3,0.1-0.3,0.3V7
				c0,0.2-0.1,0.3-0.3,0.3h-0.9c-0.2,0-0.3-0.1-0.3-0.3V0.6z"/>
			<path fill="#FFFFFF" d="M22,13.1c-0.6-0.4-1.4-0.4-2,0c-0.1,0.1-0.3,0.2-0.5,0.4L19,14.1c-0.2,0.2-0.2,0.5,0,0.7l2.2,2.2
				c0.2,0.2,0.5,0.2,0.7,0l0.6-0.6c0.2-0.2,0.3-0.3,0.4-0.5c0.4-0.6,0.4-1.4,0-2c-0.1-0.1-0.2-0.3-0.4-0.5l0,0
				C22.3,13.3,22.1,13.2,22,13.1z"/>
			<path fill="#FFFFFF" d="M17.6,15.5c0.2-0.2,0.5-0.2,0.7,0l2.2,2.2c0.2,0.2,0.2,0.5,0,0.7l-4,4l-0.1,0.1L13,23.3
				c-0.1,0-0.2,0-0.2-0.1c-0.1-0.1-0.1-0.1-0.1-0.2l0.8-3.4c0,0,0-0.1,0.1-0.1L17.6,15.5z"/>
			<g>
				<path fill="#FFFFFF" d="M5.7,14c0.6,0,1,0.2,1.4,0.5c0.4,0.4,0.6,0.8,0.6,1.4c0,0.5-0.2,1-0.6,1.4s-0.9,0.5-1.4,0.5h-1v1.6H3.2
					V14H5.7z M5.7,16.4c0.1,0,0.3,0,0.4-0.1s0.1-0.2,0.1-0.4c0-0.1,0-0.3-0.1-0.4c-0.1-0.1-0.2-0.1-0.4-0.1h-1v1H5.7z"/>
			</g>
		</g>
	</g>
</g>
</svg>
